#!OML:ASF I:\Actors\actors\Patient Classification 1\Patient 1\Session 1\Subject1.ASF
:FULLY-SPECIFIED
:DEGREES
1323
root 0.0706428 17.6558 8.81932 26.0542 -4.61413 -12.7845
lowerback 13.4652 -0.713462 5.30841
upperback -3.29065 -0.0399303 -0.24845
thorax -11.2093 -0.390702 -3.26731
lowerneck -21.3619 4.0553 5.25935
upperneck 12.1139 3.14496 4.5456
head 7.21777 2.20753 1.048
rclavicle -3.97569e-015 1.59028e-014
rhumerus 29.0059 56.9122 -76.2906
rradius 58.9124
rwrist -41.0671
rhand 18.5885 -78.4088
rfingers 7.12502
rthumb 43.218 -257.423
lclavicle -3.97569e-015 1.59028e-014
lhumerus 23.6211 -18.5019 65.8046
lradius 29.4252
lwrist 49.2775
lhand -17.1341 25.5476
lfingers 7.12502
lthumb 9.10591 55.331
rfemur -26.5629 31.3585 20.2159
rtibia 0.205053
rfoot -4.29584 -26.3144
rtoes 7.29739
lfemur 336.733 -62.3999 -338.227
ltibia -5.07944
lfoot -437.361 418.583
ltoes 38.8195
1324
root 0.0653937 17.6569 8.82324 26.4317 -4.46362 -12.887
lowerback 13.5249 -0.680326 5.21016
upperback -3.1803 -0.0156174 -0.278238
thorax -11.1167 -0.368952 -3.24995
lowerneck -21.519 4.032 5.20943
upperneck 11.827 3.12001 4.60387
head 7.14624 2.19276 1.0706
rclavicle 2.38542e-014 -1.59028e-015
rhumerus 30.5341 56.3336 -76.0287
rradius 57.4985
rwrist -40.5854
rhand 18.4277 -77.8534
rfingers 7.12502
rthumb 43.0677 -257.925
lclavicle 2.38542e-014 -1.59028e-015
lhumerus 25.0086 -15.5829 67.2328
lradius 27.1763
lwrist 45.8861
lhand -16.5139 24.8893
lfingers 7.12502
lthumb 9.70432 54.6457
rfemur -26.9151 31.3519 20.1769
rtibia 0.0242659
rfoot -4.16784 -26.3867
rtoes 7.91958
lfemur 336.161 -62.1395 -337.499
ltibia -5.18427
lfoot -437.453 418.224
ltoes 39.2727
1325
root 0.0616713 17.6576 8.82794 26.7472 -4.31649 -12.9925
lowerback 13.6151 -0.673429 5.1505
upperback -3.08427 -0.0173222 -0.30728
thorax -11.0615 -0.363549 -3.24783
lowerneck -21.6412 4.03503 5.14619
upperneck 11.6536 3.13448 4.64855
head 7.10652 2.1977 1.09678
rclavicle 9.54166e-015 -7.95139e-015
rhumerus 31.8506 55.8217 -75.9106
rradius 56.1411
rwrist -39.9708
rhand 21.5742 -78.6772
rfingers 7.12502
rthumb 45.9986 -258.228
lclavicle 9.54166e-015 -7.95139e-015
lhumerus 26.3095 -12.5133 68.8623
lradius 25.0342
lwrist 42.268
lhand -16.1191 24.3352
lfingers 7.12502
lthumb 10.0853 54.0735
rfemur -27.2043 31.3462 20.1679
rtibia -0.10323
rfoot -4.09714 -26.4453
rtoes 8.5364
lfemur 335.732 -61.9188 -336.89
ltibia -5.30532
lfoot -437.559 417.817
ltoes 39.8345
1326
root 0.0593693 17.6577 8.83363 27.0125 -4.20774 -13.0965
lowerback 13.7779 -0.652786 5.03882
upperback -3.01827 -0.00104086 -0.299528
thorax -11.0806 -0.347302 -3.18049
lowerneck -21.6704 4.03345 5.11737
upperneck 11.46 3.15675 4.59847
head 7.04679 2.19733 1.08478
rclavicle 2.62396e-014 1.59028e-015
rhumerus 32.942 55.3362 -75.8847
rradius 54.9336
rwrist -39.2212
rhand 22.1666 -78.9559
rfingers 7.12502
rthumb 46.5478 -258.181
lclavicle 2.62396e-014 1.59028e-015
lhumerus 27.6033 -9.11415 70.9081
lradius 22.8406
lwrist 38.2939
lhand -15.5895 23.8898
lfingers 7.12502
lthumb 10.5961 53.6027
rfemur -27.4649 31.3628 20.1486
rtibia -0.193325
rfoot -4.03839 -26.4953
rtoes 8.7131
lfemur 335.507 -61.7283 -336.481
ltibia -5.45055
lfoot -437.812 417.194
ltoes 40.6841
1327
root 0.0581849 17.6587 8.84003 27.2632 -4.11013 -13.1945
lowerback 14.0705 -0.603257 4.83257
upperback -3.02026 0.0532512 -0.219615
thorax -11.2486 -0.308916 -2.99025
lowerneck -21.632 4.01144 5.12486
upperneck 11.2654 3.16062 4.45814
head 6.97768 2.18046 1.03366
rclavicle -1.11319e-014 2.22639e-014
rhumerus 33.8233 54.8896 -75.8906
rradius 53.7456
rwrist -38.462
rhand 19.3707 -77.7336
rfingers 7.12502
rthumb 43.9484 -258.364
lclavicle -1.11319e-014 2.22639e-014
lhumerus 28.8945 -5.40433 73.427
lradius 20.6489
lwrist 34.0978
lhand -14.7674 23.2567
lfingers 7.12502
lthumb 11.3891 52.9274
rfemur -27.7077 31.3834 20.121
rtibia -0.285981
rfoot -3.99475 -26.5507
rtoes 8.91321
lfemur 335.248 -61.5366 -336.084
ltibia -5.54172
lfoot -437.881 416.81
ltoes 41.1314
1328
root 0.0645318 17.6554 8.84245 27.6445 -3.8673 -13.1777
lowerback 13.8181 -0.645936 5.09159
upperback -2.85165 0.00272119 -0.42038
thorax -10.9173 -0.346204 -3.34343
lowerneck -21.5899 3.98688 5.28369
upperneck 10.9046 3.09967 4.47168
head 6.8548 2.14951 0.999117
rclavicle 2.54444e-014 -4.77083e-015
rhumerus 35.0103 54.1435 -75.9639
rradius 52.4354
rwrist -37.7124
rhand 17.7719 -76.5729
rfingers 7.12502
rthumb 42.4541 -258.991
lclavicle 2.54444e-014 -4.77083e-015
lhumerus 30.6097 -1.65874 75.869
lradius 18.6012
lwrist 29.8942
lhand -13.8605 22.4694
lfingers 7.12502
lthumb 12.2636 52.0898
rfemur -28.156 31.1773 19.9046
rtibia -0.375214
rfoot -3.8761 -26.601
rtoes 8.88983
lfemur 334.169 -61.2995 -335.094
ltibia -5.48113
lfoot -437.677 416.78
ltoes 41.1364
